HIERARCHY
ROOT SpineBase
{
  OFFSET 0.000000 0.000000 0.000000
  CHANNELS 6 Xposition Yposition Zposition Zrotation Xrotation Yrotation
  JOINT SpineMid
  {
    OFFSET 0.000000 31.414831 0.000000
    CHANNELS 3 Zrotation Xrotation Yrotation
    JOINT SpineShoulder
    {
      OFFSET 1.352299 23.326713 -0.644024
      CHANNELS 3 Zrotation Xrotation Yrotation
      JOINT Neck
      {
        OFFSET 0.833787 7.714670 -0.604785
        CHANNELS 3 Zrotation Xrotation Yrotation
        JOINT Head
        {
          OFFSET 3.815889 12.220146 5.204949
          CHANNELS 3 Zrotation Xrotation Yrotation
          End Site
          {
            OFFSET 0 0 0
          }
        }
      }
      JOINT ShoulderLeft
      {
        OFFSET -5.105703 -3.624391 -13.719757
        CHANNELS 3 Zrotation Xrotation Yrotation
        JOINT ElbowLeft
        {
          OFFSET -3.946804 -24.134395 -9.130566
          CHANNELS 3 Zrotation Xrotation Yrotation
          JOINT WristLeft
          {
            OFFSET 2.950699 -24.320774 -3.873797
            CHANNELS 3 Zrotation Xrotation Yrotation
            JOINT HandLeft
            {
              OFFSET -0.895375 -9.188841 2.205245
              CHANNELS 3 Zrotation Xrotation Yrotation
              JOINT HandTipLeft
              {
                OFFSET 0.379069 -8.863696 0.940060
                CHANNELS 3 Zrotation Xrotation Yrotation
                End Site
                {
                  OFFSET 0 0 0
                }
              }
              JOINT ThumbLeft
              {
                OFFSET 2.854725 0.616725 8.365467
                CHANNELS 3 Zrotation Xrotation Yrotation
                End Site
                {
                  OFFSET 0 0 0
                }
              }
            }
          }
        }
      }
      JOINT ShoulderRight
      {
        OFFSET 6.405237 -4.400723 14.349978
        CHANNELS 3 Zrotation Xrotation Yrotation
        JOINT ElbowRight
        {
          OFFSET 0.235645 -31.473689 7.608140
          CHANNELS 3 Zrotation Xrotation Yrotation
          JOINT WristRight
          {
            OFFSET -1.611779 -23.729609 0.689563
            CHANNELS 3 Zrotation Xrotation Yrotation
            JOINT HandRight
            {
              OFFSET -0.225813 -5.485277 -2.007901
              CHANNELS 3 Zrotation Xrotation Yrotation
              JOINT HandTipRight
              {
                OFFSET 1.019897 -5.526704 -1.590900
                CHANNELS 3 Zrotation Xrotation Yrotation
                End Site
                {
                  OFFSET 0 0 0
                }
              }
              JOINT ThumbRight
              {
                OFFSET 0.819123 -0.562693 -10.385913
                CHANNELS 3 Zrotation Xrotation Yrotation
                End Site
                {
                  OFFSET 0 0 0
                }
              }
            }
          }
        }
      }
    }
  }
  JOINT HipLeft
  {
    OFFSET -2.960581 0.933557 -8.512363
    CHANNELS 3 Zrotation Xrotation Yrotation
    JOINT KneeLeft
    {
      OFFSET -9.949227 -36.177087 -0.812865
      CHANNELS 3 Zrotation Xrotation Yrotation
      JOINT AnkleLeft
      {
        OFFSET -10.453531 -34.127765 6.929009
        CHANNELS 3 Zrotation Xrotation Yrotation
        JOINT FootLeft
        {
          OFFSET 3.376369 -5.988095 -3.092256
          CHANNELS 3 Zrotation Xrotation Yrotation
          End Site
          {
            OFFSET 0 0 0
          }
        }
      }
    }
  }
  JOINT HipRight
  {
    OFFSET 4.839431 0.834206 1.631410
    CHANNELS 3 Zrotation Xrotation Yrotation
    JOINT KneeRight
    {
      OFFSET -4.713509 -37.851631 9.848622
      CHANNELS 3 Zrotation Xrotation Yrotation
      JOINT AnkleRight
      {
        OFFSET -8.200924 -38.278169 15.512272
        CHANNELS 3 Zrotation Xrotation Yrotation
        JOINT FootRight
        {
          OFFSET 3.039035 -5.568469 -1.986848
          CHANNELS 3 Zrotation Xrotation Yrotation
          End Site
          {
            OFFSET 0 0 0
          }
        }
      }
    }
  }
}
MOTION
Frames: 14
Frame Time: 0.033333
-83.193477 82.069101 289.939467 0.626235 -11.784156 -60.516928 0.985103 1.674983 61.124390 1.564868 0.502761 0.606654 7.653629 -10.023013 0.357152 0.000000 0.000000 0.000000 -3.579750 4.080635 -0.150299 4.105724 3.507101 -2.610268 5.555971 14.148761 1.200215 -2.837394 -9.320991 -0.261256 0.000000 0.000000 0.000000 0.000000 0.000000 0.000000 61.558785 -43.715265 35.051250 116.327852 -34.011868 150.740734 -27.558399 -5.998657 -33.875895 37.055899 8.347242 79.060936 0.000000 0.000000 0.000000 0.000000 0.000000 0.000000 -15.083828 1.596891 60.859222 1.900416 -1.367798 -0.467750 12.672047 9.718804 1.172674 0.000000 0.000000 0.000000 -21.716706 13.249236 61.633678 5.312301 -6.466112 3.696077 -1.790630 0.317385 0.338176 0.000000 0.000000 0.000000
-82.155558 82.178708 290.597140 0.391068 -12.494950 -59.966426 1.134473 1.785881 60.560968 1.641781 0.543144 0.622548 9.517450 -11.182813 0.055022 0.000000 0.000000 0.000000 -3.813809 4.762231 -0.073929 3.220066 3.683460 -2.432156 7.091670 15.003581 0.822705 -4.251993 -10.058865 -0.555966 0.000000 0.000000 0.000000 0.000000 0.000000 0.000000 71.977506 -34.268641 35.150660 117.633693 -28.527675 110.635337 -2.846411 -12.047849 23.280034 17.646451 1.781992 59.011317 0.000000 0.000000 0.000000 0.000000 0.000000 0.000000 -15.564204 2.225142 60.434773 1.432758 -0.864300 -0.723210 15.492041 14.610283 2.378824 0.000000 0.000000 0.000000 -22.957112 13.880702 61.192357 4.844375 -6.924924 3.391321 -5.510372 -2.629777 0.773279 0.000000 0.000000 0.000000
-81.361186 82.206447 291.110541 -0.111056 -13.053065 -58.969260 1.384346 1.820147 59.507197 1.774786 0.506593 0.631520 11.288126 -12.281481 -0.124733 0.000000 0.000000 0.000000 -3.958717 5.313416 0.093025 2.924056 4.413420 -2.412942 6.883427 14.917927 0.539276 -5.050326 -10.934409 -0.700163 0.000000 0.000000 0.000000 0.000000 0.000000 0.000000 76.876808 -23.487931 29.398015 115.241243 -19.016675 101.207853 7.857017 1.378182 52.164044 -1.927400 -0.368715 36.974964 0.000000 0.000000 0.000000 0.000000 0.000000 0.000000 -15.648913 3.398101 59.548709 0.750300 -0.509853 -0.921542 19.837084 20.995705 2.837442 0.000000 0.000000 0.000000 -23.176920 14.813018 60.372666 4.219899 -6.622370 2.878946 -3.656874 -0.598920 2.274982 0.000000 0.000000 0.000000
-80.614263 82.165248 291.525913 -0.663671 -13.489060 -57.174053 1.596147 1.790838 57.641153 1.873122 0.459612 0.631313 13.117161 -13.334197 -0.310046 0.000000 0.000000 0.000000 -3.428434 4.807360 0.120380 2.011580 5.999651 -2.303277 6.046668 14.032975 0.320357 -3.062339 -9.770336 -0.088920 0.000000 0.000000 0.000000 0.000000 0.000000 0.000000 82.085193 -12.066884 21.858011 105.250313 -8.725389 109.451545 14.034737 6.482824 60.335644 -18.494240 1.206396 15.150806 0.000000 0.000000 0.000000 0.000000 0.000000 0.000000 -15.649989 4.933317 57.831767 0.076394 -0.566728 -0.999647 25.291795 27.634495 2.060819 0.000000 0.000000 0.000000 -22.956219 15.709660 58.679092 3.966018 -6.311773 2.548647 -4.687202 -0.147985 3.515688 0.000000 0.000000 0.000000
-80.025916 82.041466 291.794398 -1.384412 -13.723388 -54.604940 1.871201 1.742033 54.961334 1.995071 0.386567 0.620424 14.977495 -14.202856 -0.579812 0.000000 0.000000 0.000000 -2.762260 3.922927 0.168004 1.075095 7.875433 -2.173577 5.178992 11.488805 0.318514 -2.335267 -7.517979 -0.025492 0.000000 0.000000 0.000000 0.000000 0.000000 0.000000 85.333489 -2.537025 13.822391 95.507549 -0.953229 127.967458 21.341616 1.686275 58.117016 -20.424680 7.959544 14.467714 0.000000 0.000000 0.000000 0.000000 0.000000 0.000000 -15.374748 6.901200 55.284750 -0.514620 -1.063504 -0.938693 25.779277 30.551940 2.793069 0.000000 0.000000 0.000000 -22.153830 16.591744 56.109274 4.236148 -5.808842 2.450106 -5.232792 0.181753 4.306504 0.000000 0.000000 0.000000
-79.583294 81.825620 291.988834 -1.873766 -13.870956 -51.713198 1.981496 1.668737 51.994579 1.992048 0.398423 0.602510 15.812908 -15.000136 -0.359554 0.000000 0.000000 0.000000 -2.524879 2.784358 0.463467 0.743834 9.677487 -2.253453 4.240898 9.132635 0.248740 -1.710964 -5.789680 0.036162 0.000000 0.000000 0.000000 0.000000 0.000000 0.000000 88.224373 5.241858 6.649286 85.302456 2.672659 159.038747 31.360561 -9.528970 55.988221 -19.785632 16.604141 13.830623 0.000000 0.000000 0.000000 0.000000 0.000000 0.000000 -15.610689 8.849123 52.350858 -0.581374 -2.501116 -0.597737 24.443877 32.176603 3.872821 0.000000 0.000000 0.000000 -21.159143 17.057774 53.099308 4.931026 -5.077448 2.532981 -5.492752 0.482731 4.745749 0.000000 0.000000 0.000000
-79.213717 81.719885 292.117381 -2.464078 -13.968919 -49.491400 2.100935 1.556038 49.685217 2.028893 0.353834 0.584286 16.811473 -15.450853 -0.376857 0.000000 0.000000 0.000000 -2.713013 1.857422 0.997118 1.035682 11.202512 -2.584462 3.360779 6.355517 0.215159 -0.702660 -2.621052 0.123947 0.000000 0.000000 0.000000 0.000000 0.000000 0.000000 93.879705 11.293798 0.432693 73.321907 4.622964 -158.559242 33.301111 -25.542439 48.529695 -22.066987 25.068360 6.542457 0.000000 0.000000 0.000000 0.000000 0.000000 0.000000 -15.012214 10.264278 50.131624 -0.919808 -2.635122 -0.609427 20.631173 31.880206 6.553353 0.000000 0.000000 0.000000 -20.155660 17.479585 50.763144 5.426641 -4.255334 2.518373 -5.553268 0.602544 5.101247 0.000000 0.000000 0.000000
-78.851281 81.707993 292.284981 -2.735608 -14.174081 -48.118796 2.077740 1.528763 48.273876 1.998151 0.381478 0.573249 16.954867 -15.644180 -0.187910 0.000000 0.000000 0.000000 -2.747753 0.741606 1.363005 0.436106 12.757593 -2.555431 3.027895 3.575610 0.051301 0.226900 0.751399 0.169595 0.000000 0.000000 0.000000 0.000000 0.000000 0.000000 98.515353 16.307211 -5.714936 63.367413 3.920335 -112.693966 4.683420 -38.723533 8.027016 -19.568099 22.453372 8.387628 0.000000 0.000000 0.000000 0.000000 0.000000 0.000000 -14.808701 10.893980 48.813409 -0.965900 -2.310467 -0.725854 19.746869 31.949132 7.535674 0.000000 0.000000 0.000000 -19.622566 17.619505 49.316298 5.800404 -3.374699 2.458231 -5.210326 1.045792 5.525633 0.000000 0.000000 0.000000
-78.527502 81.711388 292.358980 -2.934613 -14.274288 -47.625518 2.111724 1.517348 47.748806 1.988598 0.376685 0.569523 16.715338 -15.712491 0.070653 0.000000 0.000000 0.000000 -3.477222 0.129807 1.948046 1.292016 13.639320 -3.064963 1.292145 0.650263 -0.133956 1.649741 3.613518 0.278283 0.000000 0.000000 0.000000 0.000000 0.000000 0.000000 105.393551 18.135171 -8.980607 53.061799 3.008458 -92.122395 -11.112396 -28.329305 -19.927832 -16.695053 14.670930 13.519565 0.000000 0.000000 0.000000 0.000000 0.000000 0.000000 -14.661801 11.186678 48.340676 -1.070618 -2.130580 -0.806193 19.088462 32.140601 8.281591 0.000000 0.000000 0.000000 -19.382185 17.562083 48.759493 6.027416 -2.598486 2.357648 -3.731895 2.324882 6.096261 0.000000 0.000000 0.000000
-78.178519 81.925330 292.321091 -2.895601 -14.314857 -47.654937 2.101634 1.455817 47.792347 1.940773 0.323070 0.580418 16.226360 -15.418685 0.201760 0.000000 0.000000 0.000000 -3.701476 -0.374859 2.189422 -1.500465 14.022378 -2.112151 6.146893 -0.076908 -0.086234 -1.446918 4.005124 -0.374568 0.000000 0.000000 0.000000 0.000000 0.000000 0.000000 112.378633 18.935336 -11.494848 46.717732 1.325171 -88.051932 -15.895105 -14.296869 -37.992371 -10.225240 4.797785 23.950618 0.000000 0.000000 0.000000 0.000000 0.000000 0.000000 -14.642168 10.942502 48.412027 -1.015019 -1.896727 -0.871645 18.920573 32.220207 8.490869 0.000000 0.000000 0.000000 -19.405291 17.298309 48.744466 5.936139 -2.171761 2.184521 -3.858742 1.549251 6.105617 0.000000 0.000000 0.000000
-77.884399 82.300075 292.157132 -2.756821 -14.171509 -48.022227 2.048318 1.379358 48.192069 1.915094 0.274958 0.585743 16.219050 -15.513912 0.249573 0.000000 0.000000 0.000000 -3.810253 -0.576998 2.265214 -3.480958 13.499034 -1.457875 8.715745 0.037230 -0.208479 -2.901376 3.804933 -0.634398 0.000000 0.000000 0.000000 0.000000 0.000000 0.000000 117.510639 17.146036 -9.272423 44.387167 0.244161 -105.221350 -19.838239 -2.192111 -49.418258 2.553904 -0.942703 41.679116 0.000000 0.000000 0.000000 0.000000 0.000000 0.000000 -14.366787 10.325896 48.803492 -1.029524 -1.499735 -0.965560 19.002981 32.325052 8.464897 0.000000 0.000000 0.000000 -19.399084 16.901134 49.056368 5.689966 -2.008817 2.014270 -3.984795 1.188143 6.204903 0.000000 0.000000 0.000000
-77.668352 82.771301 291.844126 -2.515544 -13.945888 -48.800015 2.022952 1.322309 49.013874 1.929903 0.225800 0.593472 15.674327 -15.573231 0.480155 0.000000 0.000000 0.000000 -3.984053 -0.529538 2.249928 -4.509703 12.346077 -1.225051 9.983792 3.149838 -0.556239 -3.975147 0.907345 -0.675654 0.000000 0.000000 0.000000 0.000000 0.000000 0.000000 120.143039 14.230471 -4.095438 47.084247 -1.684655 -142.465664 -14.677966 -14.830732 -24.777977 0.247575 1.518675 39.860423 0.000000 0.000000 0.000000 0.000000 0.000000 0.000000 -13.722009 9.315825 49.625511 -1.216289 -0.610835 -1.171385 19.140330 32.429101 8.459360 0.000000 0.000000 0.000000 -19.490408 16.394532 49.785181 5.293139 -2.080423 1.835467 -4.199863 0.871981 6.279838 0.000000 0.000000 0.000000
-77.526092 83.327491 291.475066 -2.175922 -13.732927 -49.970862 2.014062 1.330623 50.236064 1.970189 0.191601 0.605709 14.734769 -15.514882 0.766878 0.000000 0.000000 0.000000 -4.495296 -0.284440 2.294686 -4.578335 11.099900 -1.362470 10.699845 6.963099 -0.873514 -4.880374 -3.141578 -0.779247 0.000000 0.000000 0.000000 0.000000 0.000000 0.000000 118.377908 9.749386 4.185369 50.878137 -1.781045 -172.729676 -12.468053 -13.572889 -13.741092 5.278640 2.246764 48.238285 0.000000 0.000000 0.000000 0.000000 0.000000 0.000000 -13.374916 8.398543 50.815915 -1.421612 -0.243901 -1.244586 19.473916 32.701006 8.175425 0.000000 0.000000 0.000000 -20.042424 15.933453 50.943509 4.945920 -2.804324 1.818510 -4.454840 0.401080 6.040501 0.000000 0.000000 0.000000
-77.457687 83.870207 290.995481 -1.691059 -13.422621 -50.847455 2.114568 1.441952 51.166258 2.064100 0.205694 0.621305 14.207771 -15.715783 0.806448 0.000000 0.000000 0.000000 -4.086451 -0.668976 1.778436 -5.012542 10.009041 -1.292059 9.778664 11.448899 -1.145948 -3.900247 -6.683267 -0.433584 0.000000 0.000000 0.000000 0.000000 0.000000 0.000000 113.918730 5.610699 10.935643 57.160594 -3.376107 166.928008 -11.405788 -15.764346 -6.628913 0.741996 6.632546 46.534036 0.000000 0.000000 0.000000 0.000000 0.000000 0.000000 -12.823868 7.146391 51.766074 -1.423544 0.523891 -1.385520 22.067313 34.062347 6.698507 0.000000 0.000000 0.000000 -20.195764 15.256497 51.755799 4.540617 -3.231950 1.728502 -4.403281 0.023957 5.714147 0.000000 0.000000 0.000000
